<?xml version="1.0" standalone="no"?>
<!DOCTYPE svg PUBLIC "-//W3C//DTD SVG 20010904//EN"
 "http://www.w3.org/TR/2001/REC-SVG-20010904/DTD/svg10.dtd">
<svg version="1.0" xmlns="http://www.w3.org/2000/svg"
 width="900.000000pt" height="720.000000pt" viewBox="0 0 900.000000 720.000000"
 preserveAspectRatio="xMidYMid meet">

<g transform="translate(0.000000,720.000000) scale(0.100000,-0.100000)"
fill="#000000" stroke="none">
<path d="M6100 6835 c30 -30 57 -55 59 -55 3 0 -19 25 -49 55 -30 30 -57 55
-59 55 -3 0 19 -25 49 -55z"/>
<path d="M4674 6778 l-19 -23 23 19 c21 18 27 26 19 26 -2 0 -12 -10 -23 -22z"/>
<path d="M6160 6766 c0 -2 8 -10 18 -17 15 -13 16 -12 3 4 -13 16 -21 21 -21
13z"/>
<path d="M4619 6713 c-13 -16 -12 -17 4 -4 9 7 17 15 17 17 0 8 -8 3 -21 -13z"/>
<path d="M6200 6716 c0 -2 8 -10 18 -17 15 -13 16 -12 3 4 -13 16 -21 21 -21
13z"/>
<path d="M6245 6656 c10 -14 19 -26 22 -26 7 0 -17 39 -28 46 -6 3 -3 -5 6
-20z"/>
<path d="M4569 6643 c-13 -16 -12 -17 4 -4 16 13 21 21 13 21 -2 0 -10 -8 -17
-17z"/>
<path d="M4489 6506 c-34 -69 -40 -89 -30 -99 10 -9 11 -9 6 4 -3 8 12 51 34
94 22 44 38 81 36 83 -2 2 -22 -35 -46 -82z"/>
<path d="M6330 6507 c46 -99 68 -178 64 -229 -2 -21 0 -38 4 -38 4 0 8 -9 8
-20 0 -24 -3 -24 -52 -4 -33 14 -36 18 -20 24 13 4 16 9 8 14 -16 9 -51 -15
-45 -31 3 -8 -3 -13 -17 -13 -15 0 -20 5 -17 14 7 18 -17 28 -49 20 -13 -3
-24 -2 -24 4 0 5 -13 25 -30 43 -16 19 -30 37 -30 41 0 3 -13 11 -30 16 -29
11 -30 10 -40 -29 -5 -21 -15 -57 -20 -79 -17 -64 -50 -74 -79 -24 -11 19 -25
34 -31 34 -5 0 -10 4 -10 10 0 5 -13 23 -30 38 -16 16 -30 34 -30 40 0 6 -10
12 -22 14 -13 2 -27 13 -33 26 -6 15 -16 21 -28 18 -9 -2 -14 0 -11 6 4 6 -31
7 -97 4 -127 -6 -149 -9 -149 -18 0 -5 -8 -8 -17 -8 -55 -1 -157 -55 -168 -90
-14 -43 -153 -50 -176 -9 -5 11 -16 19 -24 19 -8 0 -15 6 -15 13 0 22 -104 48
-214 53 -33 1 -70 5 -83 9 -29 7 -30 -9 0 -23 21 -10 21 -11 2 -11 -24 -1 -48
33 -40 58 3 10 0 18 -7 18 -7 0 -17 2 -23 3 -22 5 -35 -1 -35 -16 0 -8 -5 -12
-10 -9 -6 4 -8 10 -5 15 3 5 -27 9 -67 8 -41 0 -74 4 -76 10 -5 17 -57 -3 -56
-21 1 -10 -4 -17 -12 -17 -8 0 -14 -5 -14 -11 0 -5 -4 -7 -10 -4 -5 3 -10 -1
-10 -9 0 -9 -5 -16 -10 -16 -6 0 -8 12 -5 28 3 17 -1 12 -10 -13 -62 -160 -57
-430 11 -634 75 -225 194 -388 406 -558 127 -101 178 -149 178 -168 0 -28 -85
-80 -162 -99 -24 -5 -28 -3 -28 16 -1 60 -56 132 -139 181 -32 19 -51 8 -24
-14 14 -12 16 -12 9 0 -6 9 -5 12 5 9 8 -3 13 -11 11 -17 -1 -7 2 -10 8 -6 20
13 90 -76 90 -115 0 -29 -24 -69 -35 -58 -4 3 -1 17 6 30 12 22 11 23 -8 6
-21 -19 -48 -25 -38 -8 4 6 11 8 16 4 6 -3 7 11 3 38 -4 33 -15 51 -42 76 -57
50 -66 57 -77 58 -5 0 -23 6 -40 13 -29 12 -29 13 -11 27 11 8 15 14 9 14 -7
0 -15 -5 -19 -11 -4 -7 -21 -9 -45 -5 -21 3 -40 2 -43 -2 -2 -4 3 -8 12 -9 9
-1 26 -4 37 -6 11 -3 24 -6 29 -6 4 -1 6 -7 3 -15 -4 -10 8 -15 44 -20 27 -4
48 -10 45 -14 -2 -4 12 -19 32 -32 44 -29 53 -41 47 -57 -2 -7 1 -15 6 -19 6
-3 2 -12 -11 -21 -17 -12 -19 -18 -9 -29 9 -11 8 -14 -5 -14 -9 0 -16 -4 -16
-9 0 -5 -13 -14 -30 -21 -38 -16 -128 -80 -115 -81 6 -1 13 -1 18 0 13 2 7 -6
-57 -72 -56 -57 -65 -72 -71 -115 -11 -81 8 -128 78 -197 98 -96 198 -131 350
-123 72 4 96 10 153 39 108 55 124 85 150 293 6 55 50 111 78 100 9 -3 16 -2
16 4 0 5 24 14 54 20 138 28 298 -43 888 -391 132 -79 198 -112 140 -71 -12 8
-22 21 -22 29 0 7 -4 15 -8 17 -5 2 -23 26 -42 53 -19 28 -51 68 -72 90 -21
22 -38 46 -38 53 0 6 -7 12 -15 12 -8 0 -15 6 -15 13 0 8 -11 19 -25 25 -15 7
-25 20 -25 33 0 20 -4 21 -40 15 -44 -7 -53 5 -17 22 21 11 20 11 -5 6 -23 -5
-28 -3 -28 14 0 11 7 25 15 32 9 7 13 21 10 30 -3 10 1 25 10 33 10 11 12 18
4 23 -8 5 -8 9 1 14 9 6 7 10 -8 14 -23 8 -38 35 -19 37 7 1 21 2 32 3 24 1
109 -25 155 -49 25 -13 30 -19 19 -26 -10 -7 -7 -8 10 -7 13 2 26 -3 29 -11 3
-8 0 -11 -6 -7 -6 3 -13 2 -16 -2 -3 -5 7 -9 22 -8 21 1 27 -3 25 -19 -1 -11
0 -14 4 -6 4 10 12 6 29 -14 13 -15 21 -32 18 -37 -3 -4 0 -7 6 -6 7 2 17 -6
23 -17 7 -11 15 -22 18 -25 4 -3 33 -51 64 -107 32 -57 60 -103 62 -103 7 0
-85 168 -120 220 -54 79 -140 161 -200 191 -31 16 -121 48 -200 70 -145 41
-212 71 -231 101 -15 24 14 52 166 160 156 111 292 248 362 367 195 331 217
702 60 1014 -48 95 -50 84 -4 -16z m-810 -147 c0 -5 -5 -10 -11 -10 -5 0 -7 5
-4 10 3 6 8 10 11 10 2 0 4 -4 4 -10z m-1075 -30 c3 -5 1 -10 -4 -10 -6 0 -11
5 -11 10 0 6 2 10 4 10 3 0 8 -4 11 -10z m311 -365 c27 -8 65 -17 85 -20 31
-5 40 -12 62 -56 32 -60 23 -88 -23 -81 -24 3 -32 -2 -54 -37 -14 -22 -26 -45
-26 -51 0 -18 -65 -16 -85 3 -7 7 -22 19 -34 27 -11 8 -21 19 -21 24 0 5 -8
14 -17 21 -12 9 -18 32 -21 77 l-4 65 38 21 c48 25 42 25 100 7z m-38 -404
c18 -6 66 -11 105 -12 60 -1 176 -21 181 -31 15 -27 22 -57 16 -73 -7 -19 -7
-19 -18 0 -9 17 -14 18 -30 8 -12 -7 -24 -8 -33 -2 -8 5 -24 9 -36 9 -13 0
-23 5 -23 11 0 8 -17 10 -55 6 -30 -3 -57 -2 -60 3 -3 5 -16 5 -28 1 -18 -7
-26 -3 -44 25 -23 33 -30 64 -15 64 4 0 22 -4 40 -9z m82 -131 c-29 -8 -40 -3
-21 10 8 4 21 5 30 2 12 -5 10 -8 -9 -12z m838 -479 c10 -6 7 -12 -12 -24 -29
-19 -36 -21 -36 -8 0 5 10 13 21 16 17 6 19 9 8 16 -8 5 -9 9 -4 9 6 0 16 -4
23 -9z m95 -26 l18 -25 -33 7 c-43 7 -58 21 -38 33 23 15 33 12 53 -15z m-685
-128 c5 -42 -41 -112 -93 -143 -38 -22 -51 -25 -83 -17 -32 7 -37 13 -40 39
-3 29 30 86 46 82 12 -3 82 26 82 34 0 4 6 8 14 8 7 0 19 7 26 15 19 23 45 14
48 -18z m-264 -12 c-28 -22 -40 -18 -13 4 13 11 26 17 28 15 3 -2 -4 -11 -15
-19z m1210 -227 c4 -16 1 -30 -6 -34 -7 -5 -8 -3 -3 6 6 10 4 12 -11 6 -10 -4
-15 -4 -11 0 4 4 0 12 -7 18 -10 8 -12 17 -5 35 8 21 12 23 23 10 7 -8 16 -26
20 -41z"/>
<path d="M3616 5282 c-3 -5 -10 -49 -16 -98 -6 -49 -16 -109 -21 -133 -5 -24
-8 -46 -5 -48 6 -7 35 130 44 215 8 71 8 80 -2 64z"/>
<path d="M3758 5273 c6 -2 18 -2 25 0 6 3 1 5 -13 5 -14 0 -19 -2 -12 -5z"/>
<path d="M3878 5263 c7 -3 16 -2 19 1 4 3 -2 6 -13 5 -11 0 -14 -3 -6 -6z"/>
<path d="M3953 5253 c9 -2 23 -2 30 0 6 3 -1 5 -18 5 -16 0 -22 -2 -12 -5z"/>
<path d="M4058 5243 c6 -2 18 -2 25 0 6 3 1 5 -13 5 -14 0 -19 -2 -12 -5z"/>
<path d="M4148 5233 c6 -2 18 -2 25 0 6 3 1 5 -13 5 -14 0 -19 -2 -12 -5z"/>
<path d="M4258 5223 c7 -3 16 -2 19 1 4 3 -2 6 -13 5 -11 0 -14 -3 -6 -6z"/>
<path d="M4328 5213 c7 -3 16 -2 19 1 4 3 -2 6 -13 5 -11 0 -14 -3 -6 -6z"/>
<path d="M4388 5203 c7 -3 16 -2 19 1 4 3 -2 6 -13 5 -11 0 -14 -3 -6 -6z"/>
<path d="M4595 5140 c-3 -6 1 -7 9 -4 18 7 21 14 7 14 -6 0 -13 -4 -16 -10z"/>
<path d="M3561 4974 c0 -11 3 -14 6 -6 3 7 2 16 -1 19 -3 4 -6 -2 -5 -13z"/>
<path d="M3546 4924 c-4 -14 -5 -28 -3 -31 3 -2 8 8 11 23 4 14 5 28 3 31 -3
2 -8 -8 -11 -23z"/>
<path d="M2780 4816 c30 -31 54 -59 52 -62 -1 -2 4 -12 13 -20 8 -9 15 -23 16
-32 0 -10 3 -12 6 -5 3 10 8 10 19 -1 17 -17 19 -30 3 -20 -8 4 -8 0 0 -15 14
-25 23 -28 14 -4 -4 11 -3 14 5 9 7 -4 12 -19 13 -34 0 -19 2 -22 7 -11 6 14
9 15 20 3 10 -11 10 -14 0 -14 -7 -1 -2 -7 12 -14 14 -8 29 -12 34 -9 5 4 6 1
1 -6 -4 -8 7 -27 31 -51 22 -21 50 -52 64 -69 19 -25 31 -31 60 -31 l35 1 -95
90 c-54 52 -100 87 -108 84 -7 -2 -11 -1 -8 4 3 4 -11 23 -30 42 -20 19 -65
68 -100 110 -35 42 -76 84 -91 94 -17 11 -5 -5 27 -39z"/>
<path d="M2619 4838 c-7 -12 -12 -47 -13 -77 l-1 -54 58 -13 c94 -22 165 -62
246 -139 89 -84 136 -118 156 -113 9 2 -24 35 -81 83 -53 44 -115 98 -137 119
-51 50 -147 98 -165 83 -7 -5 -14 -8 -16 -6 -11 13 -37 112 -32 124 8 23 -2
18 -15 -7z"/>
<path d="M3520 4847 c0 -7 -54 -207 -65 -242 -5 -17 -5 -17 4 -4 15 24 74 239
67 246 -3 4 -6 3 -6 0z"/>
<path d="M6170 4759 c0 -5 5 -7 10 -4 6 3 10 8 10 11 0 2 -4 4 -10 4 -5 0 -10
-5 -10 -11z"/>
<path d="M6026 4733 c7 -4 14 -17 17 -28 5 -16 5 -15 4 4 -1 14 -9 26 -17 28
-10 3 -11 2 -4 -4z"/>
<path d="M2418 4703 c12 -2 32 -2 45 0 12 2 2 4 -23 4 -25 0 -35 -2 -22 -4z"/>
<path d="M2513 4703 c9 -2 25 -2 35 0 9 3 1 5 -18 5 -19 0 -27 -2 -17 -5z"/>
<path d="M2286 4675 c-32 -13 -64 -29 -70 -36 -6 -6 5 -3 24 7 19 9 60 25 90
35 30 10 46 18 35 18 -11 0 -47 -10 -79 -24z"/>
<path d="M3394 4518 l-19 -23 23 19 c12 11 22 21 22 23 0 8 -8 2 -26 -19z"/>
<path d="M2102 4510 c-23 -37 -36 -151 -23 -199 16 -57 88 -133 158 -167 96
-45 257 -67 360 -49 62 11 92 0 109 -40 7 -18 25 -50 39 -71 14 -20 25 -46 25
-57 0 -20 -10 -20 -117 -3 -15 3 -23 -1 -23 -10 0 -17 -32 12 -50 46 -6 12
-14 19 -17 16 -7 -6 -26 19 -48 61 l-14 26 -7 -27 c-14 -56 38 -156 133 -259
l43 -46 39 42 c90 95 120 198 83 278 -12 24 -30 55 -41 68 -38 42 -228 91
-359 91 -78 0 -145 31 -212 99 -61 62 -87 128 -72 178 13 43 11 50 -6 23z m88
-283 c0 -4 -9 -3 -20 3 -11 6 -20 15 -20 20 0 6 9 5 20 -2 11 -7 20 -16 20
-21z m90 -77 c0 -5 -2 -10 -4 -10 -3 0 -8 5 -11 10 -3 6 -1 10 4 10 6 0 11 -4
11 -10z m444 -66 c7 -19 2 -18 -19 6 -16 17 -16 20 -3 15 9 -4 19 -13 22 -21z
m-153 -181 l24 -27 -24 15 c-14 9 -27 21 -29 27 -6 19 3 14 29 -15z m104 -141
c-7 -7 -32 16 -67 62 -31 41 -31 41 20 -8 28 -28 50 -52 47 -54z"/>
<path d="M6506 4377 c3 -10 9 -15 12 -12 3 3 0 11 -7 18 -10 9 -11 8 -5 -6z"/>
<path d="M6545 4300 c8 -16 20 -42 26 -56 5 -15 12 -24 15 -21 6 5 -43 107
-51 107 -3 0 1 -13 10 -30z"/>
<path d="M3962 4225 c-17 -37 -14 -45 4 -12 9 16 14 31 11 33 -2 2 -9 -7 -15
-21z"/>
<path d="M3788 4224 c-38 -20 -36 -28 2 -9 17 9 30 18 30 20 0 7 -1 6 -32 -11z"/>
<path d="M3577 4201 c-4 -17 -3 -21 5 -13 5 5 8 16 6 23 -3 8 -7 3 -11 -10z"/>
<path d="M6382 4181 c-38 -48 -133 -136 -143 -133 -6 1 -8 -2 -5 -7 4 -5 2
-12 -4 -16 -5 -3 -10 -2 -10 4 0 13 -141 -133 -215 -224 -132 -160 -185 -258
-185 -338 0 -67 -16 -119 -30 -97 -6 8 -10 13 -11 10 -8 -45 -12 -58 -25 -77
-8 -13 -19 -42 -24 -66 -23 -105 -25 -111 -50 -118 -14 -4 -20 -7 -14 -8 9 -1
34 -42 34 -56 0 -9 -86 27 -105 44 -11 9 -37 19 -57 20 -92 6 -251 -51 -262
-94 -3 -13 -26 -45 -51 -71 -72 -78 -126 -209 -145 -354 -9 -74 -39 -358 -46
-445 -5 -55 -8 -66 -18 -55 -8 11 -37 16 -106 18 -278 8 -473 44 -708 132
-175 66 -255 107 -324 168 -31 27 -55 52 -53 54 2 2 -2 22 -9 43 -10 27 -11
46 -4 60 9 19 8 19 -6 2 -8 -10 -20 -40 -26 -67 -18 -75 0 -123 68 -190 75
-72 138 -102 460 -220 34 -12 62 -28 62 -34 1 -6 5 -150 10 -321 7 -235 15
-358 35 -510 42 -327 56 -454 53 -482 -3 -23 -11 -28 -63 -43 -148 -41 -214
-109 -231 -238 -8 -63 9 -121 45 -156 38 -37 114 -55 261 -62 135 -7 226 9
470 81 168 50 243 84 261 116 6 12 9 45 7 74 -4 49 -13 72 -81 199 -20 39 -21
42 -7 285 7 135 16 521 19 856 6 563 8 613 25 653 10 23 25 42 32 42 21 0 86
-106 129 -208 74 -177 233 -680 295 -937 12 -49 68 -202 123 -340 116 -287
118 -297 74 -440 -48 -151 -31 -197 93 -260 141 -71 347 -99 556 -77 141 14
199 53 211 139 8 57 -36 154 -66 148 -12 -2 -20 1 -18 8 1 7 -4 11 -11 9 -8
-1 -11 2 -8 7 4 5 -3 12 -14 16 -11 3 -20 11 -20 17 0 11 15 1 58 -36 12 -11
22 -14 22 -8 0 6 -26 29 -58 50 -52 35 -60 37 -86 27 -25 -11 -26 -13 -10 -20
11 -5 22 -8 25 -7 3 0 4 -9 3 -21 -1 -12 -3 -29 -3 -37 -1 -9 -14 -1 -36 23
-18 20 -42 37 -52 37 -10 0 -29 9 -43 20 l-25 20 25 1 c14 1 27 1 30 1 3 1 23
-2 45 -5 57 -9 71 2 56 44 -6 19 -23 144 -36 279 -32 313 -41 382 -66 477 -11
43 -38 164 -59 268 -38 188 -143 671 -180 832 -11 46 -20 85 -20 87 0 2 26 6
58 9 91 8 165 42 233 105 77 71 102 119 104 197 0 33 -4 74 -9 92 -8 29 -5 36
43 93 28 34 53 74 56 88 15 70 69 145 133 183 96 57 107 207 26 379 -20 44
-39 79 -41 77 -2 -2 12 -37 32 -78 33 -70 38 -119 14 -119 -5 0 -9 -5 -9 -11
0 -6 -14 -27 -31 -46 -29 -34 -30 -37 -24 -105 4 -46 3 -68 -4 -64 -5 3 -12
-3 -16 -14 -3 -11 -11 -20 -16 -20 -6 0 -7 -6 -3 -12 5 -8 0 -7 -11 2 -15 12
-17 12 -10 1 6 -11 4 -13 -9 -8 -9 4 -15 3 -12 -2 3 -5 -1 -25 -9 -44 -8 -20
-12 -43 -9 -51 4 -9 1 -16 -6 -16 -7 0 -10 -7 -6 -16 4 -10 2 -13 -6 -8 -8 5
-9 0 -5 -15 4 -18 3 -20 -9 -10 -12 10 -13 9 -8 -6 6 -14 4 -16 -6 -10 -8 5
-11 4 -6 -3 9 -15 -33 -42 -65 -42 -29 0 -95 -65 -147 -143 -18 -27 -30 -36
-43 -32 -10 3 -92 -4 -183 -16 l-165 -21 -28 20 c-16 11 -41 24 -55 27 -52 13
-62 36 -52 117 5 40 9 143 9 228 1 177 4 187 82 261 56 55 81 69 120 69 15 0
35 5 43 10 11 7 6 8 -17 4 -18 -4 -33 -3 -33 0 0 18 32 65 53 79 24 15 25 15
43 -19 10 -19 21 -34 24 -34 3 0 60 18 125 41 107 36 149 48 285 79 l35 8 -43
1 c-44 1 -65 14 -69 41 -6 48 -33 133 -47 149 -9 10 -16 25 -16 34 0 9 -4 17
-10 17 -6 0 -6 9 1 26 9 26 4 64 -9 64 -4 0 -17 -13 -30 -29z m-495 -1197 c-7
-7 -57 18 -57 28 0 5 14 1 31 -7 17 -9 29 -19 26 -21z m-150 -49 c43 -41 81
-75 86 -75 4 0 7 -4 7 -10 0 -22 -22 -7 -99 68 -72 70 -91 92 -77 92 3 0 40
-34 83 -75z m721 -12 c-18 -25 -40 -49 -48 -51 -11 -4 -11 0 3 19 10 13 30 43
45 65 16 25 28 36 30 28 2 -8 -11 -35 -30 -61z m-797 20 l34 -37 -37 30 c-20
16 -37 32 -37 37 -2 12 4 8 40 -30z m249 7 c19 -11 31 -19 25 -19 -5 0 -26 8
-45 19 -19 11 -30 19 -25 19 6 0 26 -8 45 -19z m-94 -140 c67 -53 78 -62 67
-59 -24 8 -119 82 -143 113 l-24 31 40 -35 c23 -19 49 -42 60 -50z m94 -46 c0
-2 -9 0 -20 6 -11 6 -20 13 -20 16 0 2 9 0 20 -6 11 -6 20 -13 20 -16z m-2028
-409 c12 -8 19 -17 15 -21 -9 -10 -67 35 -67 52 0 14 2 14 15 0 9 -9 26 -22
37 -31z m134 -105 c2 0 4 -5 4 -10 0 -7 -6 -7 -19 -1 -10 6 -22 7 -26 3 -5 -4
-5 -1 -1 6 5 8 3 13 -5 11 -28 -3 -40 1 -33 12 4 7 1 10 -7 7 -7 -2 -18 -1
-24 4 -5 5 -19 15 -30 23 -11 9 15 -1 59 -20 43 -19 80 -35 82 -35z m39 -20
c3 -6 -1 -7 -9 -4 -18 7 -21 14 -7 14 6 0 13 -4 16 -10z m913 -1533 c4 -21
-21 -22 -37 -3 -9 11 -9 15 1 19 20 8 33 2 36 -16z m-78 -7 c11 -7 5 -8 -19
-3 -25 4 -32 3 -27 -5 8 -14 1 -15 -34 -5 l-25 7 25 7 c37 10 63 10 80 -1z
m-240 -10 c23 -14 4 -23 -61 -28 -67 -5 -100 10 -58 27 31 13 100 13 119 1z
m1355 -19 c-16 -14 -55 -23 -55 -12 0 9 20 17 50 20 8 1 10 -2 5 -8z m255 1
c0 -5 -23 -14 -51 -20 -62 -15 -72 -15 -64 -2 12 20 115 39 115 22z m-1883 -8
c33 -9 18 -24 -23 -24 -32 0 -42 8 -27 23 8 8 21 9 50 1z m2163 -20 c0 -8 -4
-12 -10 -9 -5 3 -10 10 -10 16 0 5 5 9 10 9 6 0 10 -7 10 -16z m-1891 -15 c18
-11 31 -22 28 -25 -7 -8 -137 27 -137 37 0 17 75 9 109 -12z m63 -66 c19 -17
25 -53 9 -53 -12 0 -41 40 -41 57 0 17 10 16 32 -4z"/>
<path d="M3690 4169 c0 -5 5 -7 10 -4 6 3 10 8 10 11 0 2 -4 4 -10 4 -5 0 -10
-5 -10 -11z"/>
<path d="M6611 4165 c0 -5 22 -53 49 -105 27 -52 49 -90 49 -85 0 6 -22 53
-49 105 -27 52 -49 91 -49 85z"/>
<path d="M3546 4133 c-6 -14 -5 -15 5 -6 7 7 10 15 7 18 -3 3 -9 -2 -12 -12z"/>
<path d="M3775 4101 c-3 -5 0 -13 6 -17 7 -4 9 -3 5 4 -3 5 0 13 6 15 9 4 10
6 1 6 -6 1 -14 -3 -18 -8z"/>
<path d="M3896 4085 c-9 -26 -7 -32 5 -12 6 10 9 21 6 23 -2 3 -7 -2 -11 -11z"/>
<path d="M4048 4093 c7 -3 16 -2 19 1 4 3 -2 6 -13 5 -11 0 -14 -3 -6 -6z"/>
<path d="M3694 4054 c-18 -14 -18 -15 4 -4 12 6 22 13 22 15 0 8 -5 6 -26 -11z"/>
<path d="M4065 4059 c-4 -6 -5 -12 -2 -15 2 -3 7 2 10 11 7 17 1 20 -8 4z"/>
<path d="M3742 4005 c-17 -37 -14 -45 4 -12 9 16 14 31 11 33 -2 2 -9 -7 -15
-21z"/>
<path d="M3842 3965 c-17 -37 -14 -45 4 -12 9 16 14 31 11 33 -2 2 -9 -7 -15
-21z"/>
<path d="M4290 3955 c13 -14 26 -25 28 -25 3 0 -5 11 -18 25 -13 14 -26 25
-28 25 -3 0 5 -11 18 -25z"/>
<path d="M4006 3935 c-9 -26 -7 -32 5 -12 6 10 9 21 6 23 -2 3 -7 -2 -11 -11z"/>
<path d="M6720 3931 c0 -6 4 -13 10 -16 6 -3 7 1 4 9 -7 18 -14 21 -14 7z"/>
<path d="M4051 3904 c0 -11 3 -14 6 -6 3 7 2 16 -1 19 -3 4 -6 -2 -5 -13z"/>
<path d="M4160 3911 c0 -5 8 -15 18 -22 16 -13 16 -13 2 5 -14 18 -13 19 8 14
12 -4 20 -2 16 3 -7 12 -44 12 -44 0z"/>
<path d="M4220 3896 c0 -2 8 -10 18 -17 15 -13 16 -12 3 4 -13 16 -21 21 -21
13z"/>
<path d="M4438 3883 c7 -3 16 -2 19 1 4 3 -2 6 -13 5 -11 0 -14 -3 -6 -6z"/>
<path d="M3715 3860 c10 -11 20 -20 23 -20 3 0 -3 9 -13 20 -10 11 -20 20 -23
20 -3 0 3 -9 13 -20z"/>
<path d="M4230 3845 c13 -14 26 -25 28 -25 3 0 -5 11 -18 25 -13 14 -26 25
-28 25 -3 0 5 -11 18 -25z"/>
<path d="M3846 3833 c-6 -14 -5 -15 5 -6 7 7 10 15 7 18 -3 3 -9 -2 -12 -12z"/>
<path d="M3952 3815 c-17 -37 -14 -45 4 -12 9 16 14 31 11 33 -2 2 -9 -7 -15
-21z"/>
<path d="M4575 3820 c10 -11 20 -20 23 -20 3 0 -3 9 -13 20 -10 11 -20 20 -23
20 -3 0 3 -9 13 -20z"/>
<path d="M4009 3813 c-13 -16 -12 -17 4 -4 9 7 17 15 17 17 0 8 -8 3 -21 -13z"/>
<path d="M4156 3786 c3 -8 -2 -16 -13 -19 -14 -4 -14 -5 5 -6 22 -1 31 22 12
34 -5 3 -7 0 -4 -9z"/>
<path d="M4450 3765 c13 -14 26 -25 28 -25 3 0 -5 11 -18 25 -13 14 -26 25
-28 25 -3 0 5 -11 18 -25z"/>
<path d="M4460 3786 c0 -2 7 -7 16 -10 8 -3 12 -2 9 4 -6 10 -25 14 -25 6z"/>
<path d="M4735 3780 c-13 -6 -15 -9 -5 -9 8 0 22 4 30 9 18 12 2 12 -25 0z"/>
<path d="M4500 3766 c0 -2 8 -10 18 -17 15 -13 16 -12 3 4 -13 16 -21 21 -21
13z"/>
<path d="M4000 3746 c0 -2 8 -10 18 -17 15 -13 16 -12 3 4 -13 16 -21 21 -21
13z"/>
<path d="M4500 3726 c0 -2 8 -10 18 -17 15 -13 16 -12 3 4 -13 16 -21 21 -21
13z"/>
<path d="M4234 3698 l-19 -23 23 19 c12 11 22 21 22 23 0 8 -8 2 -26 -19z"/>
<path d="M4612 3695 c-17 -37 -14 -45 4 -12 9 16 14 31 11 33 -2 2 -9 -7 -15
-21z"/>
<path d="M4279 3683 c-13 -16 -12 -17 4 -4 16 13 21 21 13 21 -2 0 -10 -8 -17
-17z"/>
<path d="M4340 3686 c0 -2 8 -10 18 -17 15 -13 16 -12 3 4 -13 16 -21 21 -21
13z"/>
<path d="M4400 3686 c0 -2 8 -10 18 -17 15 -13 16 -12 3 4 -13 16 -21 21 -21
13z"/>
<path d="M4712 3665 c-17 -37 -14 -45 4 -12 9 16 14 31 11 33 -2 2 -9 -7 -15
-21z"/>
<path d="M4960 3657 c0 -2 15 -16 33 -33 l32 -29 -29 33 c-28 30 -36 37 -36
29z"/>
<path d="M4270 3626 c0 -2 8 -10 18 -17 15 -13 16 -12 3 4 -13 16 -21 21 -21
13z"/>
<path d="M4556 3575 c-9 -26 -7 -32 5 -12 6 10 9 21 6 23 -2 3 -7 -2 -11 -11z"/>
<path d="M4815 3570 c-10 -11 -16 -22 -14 -24 2 -2 12 7 22 20 22 29 17 32 -8
4z"/>
<path d="M4900 3586 c0 -2 8 -10 18 -17 15 -13 16 -12 3 4 -13 16 -21 21 -21
13z"/>
<path d="M5160 3566 c0 -2 8 -10 18 -17 15 -13 16 -12 3 4 -13 16 -21 21 -21
13z"/>
<path d="M4792 3505 c0 -16 2 -22 5 -12 2 9 2 23 0 30 -3 6 -5 -1 -5 -18z"/>
<path d="M4931 3514 c0 -11 3 -14 6 -6 3 7 2 16 -1 19 -3 4 -6 -2 -5 -13z"/>
<path d="M4812 3454 c10 -10 20 -16 22 -13 3 3 -5 11 -17 18 -21 13 -21 12 -5
-5z"/>
<path d="M4896 3455 c-11 -8 -15 -15 -9 -15 6 0 16 7 23 15 16 19 11 19 -14 0z"/>
<path d="M5176 3441 c-4 -5 3 -7 14 -4 23 6 26 13 6 13 -8 0 -17 -4 -20 -9z"/>
<path d="M5156 3403 c-6 -14 -5 -15 5 -6 7 7 10 15 7 18 -3 3 -9 -2 -12 -12z"/>
<path d="M5351 3374 c0 -11 3 -14 6 -6 3 7 2 16 -1 19 -3 4 -6 -2 -5 -13z"/>
<path d="M5136 3365 c-9 -26 -7 -32 5 -12 6 10 9 21 6 23 -2 3 -7 -2 -11 -11z"/>
<path d="M5236 3365 c-9 -26 -7 -32 5 -12 6 10 9 21 6 23 -2 3 -7 -2 -11 -11z"/>
<path d="M3668 3349 c-32 -5 -84 -22 -118 -40 -59 -30 -73 -42 -76 -65 -1 -6
-22 -32 -47 -57 -53 -53 -82 -104 -92 -167 -4 -25 -9 -56 -12 -70 -9 -59 -50
-170 -63 -170 -3 0 -11 5 -18 12 -8 8 -12 8 -12 1 0 -16 -122 -36 -182 -31
-63 7 -251 99 -388 192 -52 35 -140 90 -195 122 -55 32 -125 74 -155 95 -30
20 -80 51 -112 68 l-56 32 -16 -23 c-9 -12 -16 -27 -16 -34 0 -19 387 -274
407 -268 14 4 15 4 4 -4 -10 -7 -10 -11 -1 -17 7 -4 17 -1 22 6 8 11 9 10 4
-3 -5 -17 24 -40 166 -126 152 -93 327 -162 411 -162 84 0 161 40 192 101 8
14 21 63 29 110 23 122 43 173 87 229 77 97 189 150 318 150 208 0 370 -120
371 -274 l1 -51 14 33 c26 59 25 150 -1 208 -39 85 -93 123 -257 178 -87 29
-134 35 -209 25z m389 -169 c12 -13 20 -26 18 -28 -4 -4 -30 20 -60 58 -20 25
-20 25 0 10 11 -8 30 -26 42 -40z m-56 3 c13 -17 13 -17 -6 -3 -11 8 -22 16
-24 17 -2 2 0 3 6 3 6 0 17 -8 24 -17z m-1415 -229 c30 -20 57 -40 60 -45 9
-15 -13 -10 -26 5 -6 8 -33 25 -58 37 -51 24 -182 107 -182 116 0 7 143 -71
206 -113z m14 -56 c15 -13 36 -29 46 -36 11 -7 6 -6 -11 2 -32 15 -83 56 -70
56 4 0 20 -10 35 -22z m100 -24 c0 -2 -9 0 -20 6 -11 6 -20 13 -20 16 0 2 9 0
20 -6 11 -6 20 -13 20 -16z m86 -83 c56 -28 114 -55 129 -61 15 -6 25 -13 22
-16 -3 -3 -23 4 -45 15 -22 11 -42 17 -46 14 -3 -4 -6 -1 -6 5 0 7 -3 11 -7
10 -25 -5 -163 77 -163 96 0 8 2 8 8 0 4 -7 53 -35 108 -63z"/>
<path d="M5332 3325 c-17 -37 -14 -45 4 -12 9 16 14 31 11 33 -2 2 -9 -7 -15
-21z"/>
<path d="M5181 3243 c-10 -26 -10 -27 4 -9 8 11 15 23 15 28 0 15 -7 8 -19
-19z"/>
<path d="M5277 3205 c-24 -50 -20 -58 4 -12 11 22 19 41 17 43 -3 2 -12 -12
-21 -31z"/>
<path d="M5250 3020 c-9 -6 -10 -10 -3 -10 6 0 15 5 18 10 8 12 4 12 -15 0z"/>
<path d="M5215 2990 c-3 -6 1 -7 9 -4 18 7 21 14 7 14 -6 0 -13 -4 -16 -10z"/>
<path d="M3989 2753 c-13 -16 -12 -17 4 -4 16 13 21 21 13 21 -2 0 -10 -8 -17
-17z"/>
<path d="M3949 2723 c-13 -16 -12 -17 4 -4 9 7 17 15 17 17 0 8 -8 3 -21 -13z"/>
<path d="M3829 2613 c-13 -16 -12 -17 4 -4 16 13 21 21 13 21 -2 0 -10 -8 -17
-17z"/>
</g>
</svg>
