<?xml version="1.0" standalone="no"?>
<!DOCTYPE svg PUBLIC "-//W3C//DTD SVG 20010904//EN"
 "http://www.w3.org/TR/2001/REC-SVG-20010904/DTD/svg10.dtd">
<svg version="1.0" xmlns="http://www.w3.org/2000/svg"
 width="260.000000pt" height="260.000000pt" viewBox="0 0 260.000000 260.000000"
 preserveAspectRatio="xMidYMid meet">

<g transform="translate(0.000000,260.000000) scale(0.100000,-0.100000)"
fill="#000000" stroke="none">
<path d="M1915 2569 c193 -21 288 -60 385 -158 193 -195 248 -562 154 -1029
-53 -267 -150 -492 -293 -682 -219 -291 -512 -475 -816 -511 -269 -32 -460 71
-579 313 -73 147 -98 259 -104 467 -3 140 -2 175 9 182 32 20 36 9 42 -103 15
-342 181 -584 448 -653 97 -26 258 -17 368 20 255 86 495 315 646 615 124 246
182 517 172 798 -5 163 -24 247 -78 355 -62 123 -194 226 -328 257 -90 21
-258 8 -364 -28 -199 -68 -414 -229 -561 -420 -58 -76 -149 -229 -172 -289
-12 -30 -22 -43 -36 -43 -25 0 -20 16 43 144 145 291 365 533 587 645 23 12
42 24 42 26 0 9 -83 -36 -160 -88 -108 -72 -282 -251 -362 -372 -62 -93 -156
-270 -172 -322 -4 -13 -15 -23 -24 -23 -23 0 -254 38 -256 42 -69 114 -173
221 -229 236 -46 13 -98 1 -142 -33 -23 -17 -35 -34 -35 -51 0 -15 -6 -24 -15
-24 -21 0 -19 -13 5 -35 11 -10 20 -23 20 -28 0 -5 -20 -34 -45 -63 -25 -28
-45 -61 -45 -73 0 -45 112 -123 195 -136 53 -9 134 22 200 75 85 68 79 67 205
25 129 -43 121 -23 77 -185 -14 -52 -28 -111 -31 -131 -6 -35 -10 -39 -94 -74
-79 -34 -89 -37 -117 -25 -171 72 -289 89 -352 50 -46 -27 -74 -87 -71 -151 2
-47 5 -52 31 -62 l29 -10 -4 -86 -3 -86 35 -18 c44 -23 168 -19 217 6 62 33
110 103 148 214 l22 67 67 17 c36 9 66 16 66 15 0 0 2 -77 4 -171 5 -204 31
-328 101 -470 76 -156 172 -250 332 -328 88 -42 253 -77 436 -92 73 -6 87 -4
87 8 0 9 -14 17 -37 21 -102 18 -103 16 28 60 203 68 347 162 507 331 242 256
375 543 453 980 26 145 32 442 11 540 -39 176 -91 283 -183 376 -112 113 -246
164 -454 173 l-100 5 90 -10z m-32 -309 c83 -31 167 -113 212 -204 54 -109 69
-202 62 -381 -15 -402 -188 -765 -460 -967 -216 -160 -433 -191 -631 -91 -145
74 -256 293 -256 507 l0 65 38 10 c79 22 84 20 89 -24 25 -241 161 -391 363
-403 280 -16 564 254 666 633 21 79 27 130 31 245 7 195 -14 279 -94 377 -41
51 -136 99 -213 108 -168 19 -393 -99 -540 -283 -57 -73 -140 -216 -130 -225
3 -2 23 -7 45 -9 l41 -6 33 62 c50 91 170 204 265 251 64 32 90 39 156 43 72
4 85 2 135 -23 43 -20 64 -39 90 -79 46 -70 59 -123 58 -241 -1 -333 -204
-637 -456 -684 -96 -18 -199 13 -259 76 -55 58 -113 233 -76 233 7 0 30 8 50
18 l35 18 18 -49 c50 -138 176 -182 316 -112 110 56 202 193 233 347 20 97 20
151 1 216 -38 128 -142 173 -282 120 -72 -26 -186 -136 -226 -218 -32 -63 -35
-59 81 -91 45 -12 80 -24 78 -26 -2 -2 -45 6 -96 17 -51 11 -94 19 -95 18 -1
-2 -7 -18 -14 -37 -15 -46 -15 -94 2 -88 40 15 199 58 202 55 2 -2 -40 -19
-93 -38 -109 -37 -122 -45 -122 -70 0 -13 -23 -26 -88 -49 -103 -37 -112 -38
-112 -10 0 23 -30 79 -42 79 -5 0 -24 -7 -43 -14 -19 -8 -35 -12 -35 -8 0 10
30 154 36 176 6 19 30 19 85 -2 25 -10 26 -12 16 -61 -6 -28 -8 -53 -5 -56 3
-3 26 3 51 14 33 14 46 26 49 43 2 15 11 24 26 26 36 5 26 19 -20 27 -45 8
-56 11 -60 15 -2 1 -19 4 -38 7 -43 6 -44 7 -31 31 17 32 14 92 -4 92 -21 0
-19 13 11 73 137 272 399 502 639 562 85 21 233 14 308 -15z m-1108 -709 c3
-5 -6 -53 -20 -106 -14 -54 -25 -108 -25 -121 0 -30 -43 -78 -48 -53 -3 17 41
220 58 263 10 27 24 33 35 17z"/>
<path d="M1763 2563 c9 -2 25 -2 35 0 9 3 1 5 -18 5 -19 0 -27 -2 -17 -5z"/>
<path d="M1708 2553 c7 -3 16 -2 19 1 4 3 -2 6 -13 5 -11 0 -14 -3 -6 -6z"/>
</g>
</svg>
